<svg width="1138" height="263" viewBox="0 0 1138 263" fill="none" xmlns="http://www.w3.org/2000/svg">
<g filter="url(#filter0_d_101_4)">
<g filter="url(#filter1_d_101_4)">
<path d="M86.8143 107.663L109.866 157.098L100.839 161.308L64.8227 140.223L64.4606 140.392L78.9693 171.506L68.5175 176.379L45.4656 126.944L54.6381 122.667L90.4737 143.807L90.9082 143.604L76.4107 112.514L86.8143 107.663ZM118.502 153.071L95.4497 103.636L128.76 88.1034L132.779 96.7208L109.92 107.38L115.413 119.159L136.558 109.299L140.576 117.917L119.431 127.777L124.935 139.58L147.891 128.876L151.909 137.493L118.502 153.071ZM171.25 128.475L134.053 85.6356L145.47 80.3116L169.67 110.845L170.08 110.653L163.091 72.0949L172.867 67.5363L197.921 97.7589L198.356 97.5563L190.488 59.3195L201.905 53.9955L210.812 110.026L200.626 114.776L176.14 86.8451L175.754 87.0252L181.436 123.725L171.25 128.475ZM240.482 53.3158C239.381 51.4587 237.846 50.3325 235.879 49.9372C233.912 49.5419 231.673 49.9295 229.163 51.1001C227.457 51.8955 226.13 52.8085 225.18 53.8391C224.223 54.8535 223.626 55.9255 223.388 57.0549C223.167 58.1768 223.304 59.2689 223.799 60.3309C224.18 61.231 224.725 61.9171 225.435 62.3893C226.161 62.854 226.999 63.1589 227.948 63.304C228.89 63.433 229.918 63.4531 231.032 63.3644C232.139 63.2596 233.288 63.0765 234.479 62.8151L239.416 61.8062C241.797 61.2834 244.077 61.0041 246.254 60.9683C248.432 60.9325 250.454 61.1942 252.321 61.7536C254.189 62.3131 255.856 63.2205 257.323 64.4759C258.806 65.7239 260.036 67.374 261.012 69.4263C262.407 72.4591 262.858 75.4423 262.365 78.3759C261.88 81.2859 260.491 84.0202 258.196 86.5789C255.911 89.114 252.757 91.3195 248.734 93.1955C244.743 95.0564 240.982 96.0658 237.451 96.2235C233.935 96.3737 230.79 95.6364 228.014 94.0116C225.247 92.3631 222.995 89.7795 221.256 86.2607L231.37 81.5445C232.255 83.1494 233.375 84.312 234.73 85.0322C236.093 85.7287 237.614 86.0284 239.293 85.9313C240.98 85.8106 242.725 85.33 244.527 84.4896C246.297 83.6642 247.714 82.6901 248.777 81.5673C249.857 80.437 250.545 79.2445 250.841 77.9895C251.137 76.7346 251.008 75.5117 250.453 74.3209C249.935 73.2106 249.17 72.431 248.157 71.9824C247.161 71.5262 245.911 71.3252 244.409 71.3795C242.922 71.4263 241.176 71.6526 239.171 72.0586L233.158 73.2169C228.517 74.1466 224.487 74.096 221.068 73.0653C217.649 72.0345 215.096 69.6889 213.408 66.0285C211.996 63.0429 211.574 60.0565 212.14 57.0693C212.722 54.0746 214.137 51.2893 216.384 48.7135C218.63 46.1376 221.556 44.0092 225.161 42.3283C228.83 40.6175 232.325 39.7518 235.646 39.7313C238.983 39.7033 241.937 40.4513 244.509 41.9753C247.081 43.4992 249.077 45.7223 250.499 48.6447L240.482 53.3158Z" fill="#281414"/>
<path d="M86.8143 107.663L87.7206 107.241L87.298 106.334L86.3917 106.757L86.8143 107.663ZM109.866 157.098L110.289 158.005L111.195 157.582L110.773 156.676L109.866 157.098ZM100.839 161.308L100.333 162.171L100.786 162.436L101.261 162.214L100.839 161.308ZM64.8227 140.223L65.3279 139.36L64.8753 139.095L64.4001 139.316L64.8227 140.223ZM64.4606 140.392L64.038 139.485L63.1317 139.908L63.5543 140.814L64.4606 140.392ZM78.9693 171.506L79.392 172.412L80.2983 171.989L79.8756 171.083L78.9693 171.506ZM68.5175 176.379L67.6112 176.802L68.0338 177.708L68.9401 177.286L68.5175 176.379ZM45.4656 126.944L45.043 126.038L44.1367 126.461L44.5593 127.367L45.4656 126.944ZM54.6381 122.667L55.1462 121.806L54.6927 121.538L54.2155 121.761L54.6381 122.667ZM90.4737 143.807L89.9656 144.668L90.4192 144.936L90.8964 144.713L90.4737 143.807ZM90.9082 143.604L91.3308 144.511L92.2372 144.088L91.8145 143.182L90.9082 143.604ZM76.4107 112.514L75.9881 111.608L75.0818 112.031L75.5044 112.937L76.4107 112.514ZM85.908 108.086L108.96 157.521L110.773 156.676L87.7206 107.241L85.908 108.086ZM109.444 156.192L100.416 160.402L101.261 162.214L110.289 158.005L109.444 156.192ZM101.344 160.445L65.3279 139.36L64.3174 141.086L100.333 162.171L101.344 160.445ZM64.4001 139.316L64.038 139.485L64.8832 141.298L65.2453 141.129L64.4001 139.316ZM63.5543 140.814L78.063 171.928L79.8756 171.083L65.3669 139.969L63.5543 140.814ZM78.5467 170.599L68.0949 175.473L68.9401 177.286L79.392 172.412L78.5467 170.599ZM69.4238 175.957L46.3719 126.522L44.5593 127.367L67.6112 176.802L69.4238 175.957ZM45.8882 127.851L55.0607 123.574L54.2155 121.761L45.043 126.038L45.8882 127.851ZM54.13 123.529L89.9656 144.668L90.9818 142.946L55.1462 121.806L54.13 123.529ZM90.8964 144.713L91.3308 144.511L90.4856 142.698L90.0511 142.901L90.8964 144.713ZM91.8145 143.182L77.317 112.092L75.5044 112.937L90.0019 144.027L91.8145 143.182ZM76.8334 113.421L87.2369 108.57L86.3917 106.757L75.9881 111.608L76.8334 113.421ZM118.502 153.071L117.595 153.494L118.018 154.4L118.924 153.978L118.502 153.071ZM95.4497 103.636L95.0271 102.73L94.1208 103.153L94.5434 104.059L95.4497 103.636ZM128.76 88.1034L129.667 87.6808L129.244 86.7745L128.338 87.1971L128.76 88.1034ZM132.779 96.7208L133.201 97.6271L134.108 97.2045L133.685 96.2982L132.779 96.7208ZM109.92 107.38L109.497 106.474L108.591 106.896L109.014 107.803L109.92 107.38ZM115.413 119.159L114.506 119.582L114.929 120.488L115.835 120.066L115.413 119.159ZM136.558 109.299L137.464 108.877L137.041 107.97L136.135 108.393L136.558 109.299ZM140.576 117.917L140.999 118.823L141.905 118.4L141.482 117.494L140.576 117.917ZM119.431 127.777L119.008 126.87L118.102 127.293L118.525 128.199L119.431 127.777ZM124.935 139.58L124.029 140.003L124.451 140.909L125.358 140.487L124.935 139.58ZM147.891 128.876L148.797 128.453L148.374 127.547L147.468 127.97L147.891 128.876ZM151.909 137.493L152.331 138.4L153.238 137.977L152.815 137.071L151.909 137.493ZM119.408 152.649L96.356 103.214L94.5434 104.059L117.595 153.494L119.408 152.649ZM95.8723 104.543L129.183 89.0098L128.338 87.1971L95.0271 102.73L95.8723 104.543ZM127.854 88.5261L131.872 97.1434L133.685 96.2982L129.667 87.6808L127.854 88.5261ZM132.356 95.8145L109.497 106.474L110.342 108.286L133.201 97.6271L132.356 95.8145ZM109.014 107.803L114.506 119.582L116.319 118.737L110.826 106.957L109.014 107.803ZM115.835 120.066L136.98 110.206L136.135 108.393L114.99 118.253L115.835 120.066ZM135.651 109.722L139.67 118.339L141.482 117.494L137.464 108.877L135.651 109.722ZM140.153 117.01L119.008 126.87L119.854 128.683L140.999 118.823L140.153 117.01ZM118.525 128.199L124.029 140.003L125.841 139.158L120.337 127.354L118.525 128.199ZM125.358 140.487L148.313 129.782L147.468 127.97L124.513 138.674L125.358 140.487ZM146.984 129.299L151.003 137.916L152.815 137.071L148.797 128.453L146.984 129.299ZM151.486 136.587L118.079 152.165L118.924 153.978L152.331 138.4L151.486 136.587ZM171.25 128.475L170.494 129.13L170.989 129.7L171.672 129.381L171.25 128.475ZM134.053 85.6356L133.63 84.7293L132.428 85.2898L133.298 86.2912L134.053 85.6356ZM145.47 80.3116L146.254 79.6905L145.763 79.0715L145.047 79.4053L145.47 80.3116ZM169.67 110.845L168.886 111.466L169.377 112.085L170.093 111.751L169.67 110.845ZM170.08 110.653L170.503 111.559L171.202 111.234L171.064 110.475L170.08 110.653ZM163.091 72.0949L162.668 71.1886L161.969 71.5145L162.107 72.2732L163.091 72.0949ZM172.867 67.5363L173.637 66.8981L173.144 66.3037L172.444 66.63L172.867 67.5363ZM197.921 97.7589L197.151 98.3971L197.644 98.9915L198.344 98.6652L197.921 97.7589ZM198.356 97.5563L198.778 98.4626L199.494 98.1286L199.335 97.3547L198.356 97.5563ZM190.488 59.3195L190.065 58.4132L189.349 58.7471L189.508 59.5211L190.488 59.3195ZM201.905 53.9955L202.893 53.8385L202.684 52.5287L201.482 53.0892L201.905 53.9955ZM210.812 110.026L211.235 110.933L211.918 110.614L211.8 109.869L210.812 110.026ZM200.626 114.776L199.874 115.436L200.368 116L201.048 115.683L200.626 114.776ZM176.14 86.8451L176.892 86.1859L176.398 85.6217L175.718 85.9388L176.14 86.8451ZM175.754 87.0252L175.331 86.1189L174.651 86.4362L174.766 87.1782L175.754 87.0252ZM181.436 123.725L181.858 124.631L182.539 124.314L182.424 123.572L181.436 123.725ZM172.005 127.819L134.808 84.98L133.298 86.2912L170.494 129.13L172.005 127.819ZM134.475 86.5419L145.893 81.2179L145.047 79.4053L133.63 84.7293L134.475 86.5419ZM144.686 80.9328L168.886 111.466L170.454 110.223L146.254 79.6905L144.686 80.9328ZM170.093 111.751L170.503 111.559L169.658 109.747L169.247 109.938L170.093 111.751ZM171.064 110.475L164.075 71.9165L162.107 72.2732L169.096 110.832L171.064 110.475ZM163.514 73.0012L173.289 68.4426L172.444 66.63L162.668 71.1886L163.514 73.0012ZM172.097 68.1745L197.151 98.3971L198.691 97.1207L173.637 66.8981L172.097 68.1745ZM198.344 98.6652L198.778 98.4626L197.933 96.65L197.499 96.8526L198.344 98.6652ZM199.335 97.3547L191.467 59.118L189.508 59.5211L197.376 97.7578L199.335 97.3547ZM190.91 60.2258L202.328 54.9018L201.482 53.0892L190.065 58.4132L190.91 60.2258ZM200.917 54.1525L209.824 110.183L211.8 109.869L202.893 53.8385L200.917 54.1525ZM210.389 109.12L200.203 113.87L201.048 115.683L211.235 110.933L210.389 109.12ZM201.378 114.117L176.892 86.1859L175.388 87.5043L199.874 115.436L201.378 114.117ZM175.718 85.9388L175.331 86.1189L176.177 87.9315L176.563 87.7514L175.718 85.9388ZM174.766 87.1782L180.448 123.878L182.424 123.572L176.742 86.8722L174.766 87.1782ZM181.013 122.818L170.827 127.568L171.672 129.381L181.858 124.631L181.013 122.818ZM240.482 53.3158L239.621 53.8258L240.083 54.6049L240.904 54.2221L240.482 53.3158ZM225.18 53.8391L225.907 54.5254L225.915 54.5167L225.18 53.8391ZM223.388 57.0549L222.41 56.8492L222.407 56.8614L223.388 57.0549ZM223.799 60.3309L224.72 59.9415L224.713 59.9248L224.705 59.9083L223.799 60.3309ZM225.435 62.3893L224.881 63.222L224.888 63.2268L224.896 63.2316L225.435 62.3893ZM227.948 63.304L227.797 64.2925L227.804 64.2937L227.812 64.2947L227.948 63.304ZM231.032 63.3644L231.112 64.3613L231.119 64.3607L231.127 64.36L231.032 63.3644ZM234.479 62.8151L234.279 61.8354L234.272 61.8369L234.264 61.8384L234.479 62.8151ZM239.416 61.8062L239.616 62.7859L239.623 62.7845L239.63 62.7829L239.416 61.8062ZM246.254 60.9683L246.27 61.9681L246.27 61.9681L246.254 60.9683ZM252.321 61.7536L252.608 60.7957L252.608 60.7957L252.321 61.7536ZM257.323 64.4759L256.673 65.2357L256.679 65.2411L257.323 64.4759ZM261.012 69.4263L261.921 69.0084L261.915 68.9966L261.012 69.4263ZM262.365 78.3759L261.378 78.2101L261.378 78.2116L262.365 78.3759ZM258.196 86.5789L258.939 87.2485L258.941 87.2464L258.196 86.5789ZM237.451 96.2235L237.493 97.2226L237.495 97.2225L237.451 96.2235ZM228.014 94.0116L227.503 94.8707L227.509 94.8746L228.014 94.0116ZM221.256 86.2607L220.833 85.3544L219.906 85.7867L220.359 86.7037L221.256 86.2607ZM231.37 81.5445L232.245 81.0614L231.794 80.2433L230.947 80.6382L231.37 81.5445ZM234.73 85.0322L234.26 85.9151L234.268 85.9189L234.275 85.9226L234.73 85.0322ZM239.293 85.9313L239.35 86.9297L239.364 86.9288L239.293 85.9313ZM248.777 81.5673L248.054 80.8767L248.051 80.8797L248.777 81.5673ZM250.841 77.9895L251.814 78.2194L251.814 78.2194L250.841 77.9895ZM248.157 71.9824L247.741 72.8917L247.752 72.8966L248.157 71.9824ZM244.409 71.3795L244.44 72.379L244.445 72.3789L244.409 71.3795ZM239.171 72.0586L239.36 73.0406L239.37 73.0387L239.171 72.0586ZM233.158 73.2169L232.969 72.2349L232.962 72.2364L233.158 73.2169ZM221.068 73.0653L220.78 74.0227L220.78 74.0227L221.068 73.0653ZM213.408 66.0285L214.316 65.6099L214.312 65.601L213.408 66.0285ZM212.14 57.0693L211.158 56.8784L211.157 56.8831L212.14 57.0693ZM235.646 39.7313L235.652 40.7313L235.654 40.7313L235.646 39.7313ZM244.509 41.9753L243.999 42.8356L243.999 42.8356L244.509 41.9753ZM250.499 48.6447L250.922 49.551L251.843 49.1214L251.398 48.2073L250.499 48.6447ZM241.342 52.8058C240.109 50.7259 238.344 49.4125 236.076 48.9568L235.682 50.9176C237.349 51.2525 238.652 52.1916 239.621 53.8258L241.342 52.8058ZM236.076 48.9568C233.834 48.5061 231.372 48.9666 228.74 50.1938L229.586 52.0064C231.975 50.8924 233.991 50.5777 235.682 50.9176L236.076 48.9568ZM228.74 50.1938C226.955 51.0265 225.507 52.0082 224.445 53.1614L225.915 54.5167C226.752 53.6088 227.96 52.7646 229.586 52.0064L228.74 50.1938ZM224.453 53.1528C223.396 54.2732 222.692 55.5052 222.41 56.8492L224.367 57.2606C224.559 56.3458 225.05 55.4338 225.907 54.5253L224.453 53.1528ZM222.407 56.8614C222.144 58.1969 222.31 59.5043 222.893 60.7536L224.705 59.9083C224.297 59.0334 224.19 58.1568 224.369 57.2484L222.407 56.8614ZM222.878 60.7203C223.323 61.7739 223.985 62.626 224.881 63.222L225.989 61.5567C225.465 61.2083 225.036 60.6882 224.72 59.9415L222.878 60.7203ZM224.896 63.2316C225.752 63.7798 226.725 64.1287 227.797 64.2925L228.099 62.3154C227.272 62.1891 226.57 61.9282 225.974 61.547L224.896 63.2316ZM227.812 64.2947C228.836 64.435 229.938 64.4547 231.112 64.3613L230.953 62.3676C229.898 62.4515 228.943 62.4309 228.084 62.3132L227.812 64.2947ZM231.127 64.36C232.278 64.251 233.467 64.0612 234.693 63.7919L234.264 61.8384C233.11 62.0919 232.001 62.2682 230.938 62.3689L231.127 64.36ZM234.679 63.7949L239.616 62.7859L239.215 60.8264L234.279 61.8354L234.679 63.7949ZM239.63 62.7829C241.954 62.2728 244.167 62.0028 246.27 61.9681L246.238 59.9684C243.986 60.0055 241.64 60.294 239.201 60.8294L239.63 62.7829ZM246.27 61.9681C248.357 61.9338 250.276 62.1849 252.034 62.7116L252.608 60.7957C250.632 60.2036 248.506 59.9311 246.238 59.9684L246.27 61.9681ZM252.034 62.7116C253.769 63.2314 255.313 64.0718 256.673 65.2357L257.973 63.7162C256.399 62.3692 254.608 61.3947 252.608 60.7957L252.034 62.7116ZM256.679 65.2411C258.036 66.3825 259.184 67.9107 260.109 69.856L261.915 68.9966C260.888 66.8373 259.576 65.0653 257.967 63.7108L256.679 65.2411ZM260.104 69.8441C261.425 72.7177 261.834 75.4981 261.378 78.2101L263.351 78.5417C263.881 75.3865 263.389 72.2005 261.921 69.0085L260.104 69.8441ZM261.378 78.2116C260.93 80.9051 259.641 83.4703 257.452 85.9113L258.941 87.2464C261.341 84.5701 262.83 81.6666 263.351 78.5401L261.378 78.2116ZM257.454 85.9093C255.281 88.3198 252.247 90.4536 248.311 92.2892L249.156 94.1018C253.266 92.1854 256.541 89.9082 258.939 87.2485L257.454 85.9093ZM248.311 92.2892C244.411 94.1079 240.778 95.0739 237.406 95.2245L237.495 97.2225C241.185 97.0577 245.075 96.0049 249.156 94.1018L248.311 92.2892ZM237.408 95.2244C234.066 95.3672 231.114 94.6673 228.52 93.1486L227.509 94.8746C230.466 96.6055 233.805 97.3802 237.493 97.2226L237.408 95.2244ZM228.526 93.1525C225.958 91.6224 223.824 89.2017 222.152 85.8177L220.359 86.7037C222.165 90.3573 224.537 93.1038 227.503 94.8707L228.526 93.1525ZM221.678 87.167L231.792 82.4508L230.947 80.6382L220.833 85.3544L221.678 87.167ZM230.494 82.0276C231.455 83.7688 232.704 85.0874 234.26 85.9151L235.199 84.1492C234.047 83.5366 233.056 82.53 232.245 81.0614L230.494 82.0276ZM234.275 85.9226C235.812 86.7079 237.512 87.036 239.35 86.9296L239.235 84.933C237.716 85.0209 236.374 84.7495 235.185 84.1417L234.275 85.9226ZM239.364 86.9288C241.192 86.798 243.056 86.279 244.95 85.3959L244.104 83.5833C242.394 84.381 240.768 84.8232 239.221 84.9339L239.364 86.9288ZM244.95 85.3959C246.805 84.5307 248.334 83.4896 249.503 82.2549L248.051 80.8797C247.094 81.8906 245.789 82.7976 244.104 83.5833L244.95 85.3959ZM249.5 82.258C250.677 81.0263 251.469 79.6808 251.814 78.2194L249.868 77.7596C249.62 78.8082 249.037 79.8478 248.054 80.8767L249.5 82.258ZM251.814 78.2194C252.163 76.7412 252.007 75.2887 251.359 73.8983L249.546 74.7435C250.009 75.7348 250.112 76.728 249.868 77.7596L251.814 78.2194ZM251.359 73.8983C250.751 72.5939 249.82 71.6254 248.563 71.0681L247.752 72.8966C248.52 73.2367 249.119 73.8272 249.546 74.7435L251.359 73.8983ZM248.574 71.0731C247.393 70.5326 245.976 70.3223 244.373 70.3802L244.445 72.3789C245.847 72.3282 246.929 72.5199 247.741 72.8916L248.574 71.0731ZM244.377 70.38C242.818 70.429 241.014 70.6652 238.973 71.0785L239.37 73.0387C241.338 72.6401 243.026 72.4235 244.44 72.379L244.377 70.38ZM238.982 71.0766L232.969 72.2349L233.347 74.1988L239.36 73.0405L238.982 71.0766ZM232.962 72.2364C228.432 73.1439 224.576 73.0783 221.357 72.1078L220.78 74.0227C224.399 75.1138 228.603 75.1493 233.355 74.1974L232.962 72.2364ZM221.357 72.1078C218.248 71.1708 215.901 69.0475 214.316 65.6099L212.5 66.4471C214.29 70.3304 217.049 72.8982 220.78 74.0227L221.357 72.1078ZM214.312 65.601C212.983 62.7891 212.599 60.0168 213.122 57.2555L211.157 56.8831C210.548 60.0961 211.01 63.2966 212.504 66.456L214.312 65.601ZM213.121 57.2602C213.666 54.4584 214.992 51.8303 217.137 49.3708L215.63 48.0561C213.282 50.7483 211.778 53.6908 211.158 56.8784L213.121 57.2602ZM217.137 49.3708C219.278 46.9159 222.085 44.8661 225.583 43.2347L224.738 41.422C221.028 43.1523 217.982 45.3593 215.63 48.0561L217.137 49.3708ZM225.583 43.2347C229.15 41.5716 232.503 40.7507 235.652 40.7313L235.64 38.7313C232.147 38.7529 228.51 39.6634 224.738 41.422L225.583 43.2347ZM235.654 40.7313C238.831 40.7046 241.602 41.415 243.999 42.8356L245.019 41.1149C242.273 39.4876 239.135 38.702 235.637 38.7313L235.654 40.7313ZM243.999 42.8356C246.388 44.251 248.256 46.3198 249.6 49.0821L251.398 48.2073C249.899 45.1249 247.774 42.7474 245.019 41.1149L243.999 42.8356ZM250.076 47.7384L240.059 52.4095L240.904 54.2221L250.922 49.551L250.076 47.7384Z" fill="black"/>
</g>
<rect x="135.5" y="106.5" width="997" height="147" stroke="black" stroke-width="3"/>
</g>
<defs>
<filter id="filter0_d_101_4" x="41.1504" y="33.4363" width="1096.85" height="229.564" filterUnits="userSpaceOnUse" color-interpolation-filters="sRGB">
<feFlood flood-opacity="0" result="BackgroundImageFix"/>
<feColorMatrix in="SourceAlpha" type="matrix" values="0 0 0 0 0 0 0 0 0 0 0 0 0 0 0 0 0 0 127 0" result="hardAlpha"/>
<feOffset dy="4"/>
<feGaussianBlur stdDeviation="2"/>
<feComposite in2="hardAlpha" operator="out"/>
<feColorMatrix type="matrix" values="0 0 0 0 0 0 0 0 0 0 0 0 0 0 0 0 0 0 0.25 0"/>
<feBlend mode="normal" in2="BackgroundImageFix" result="effect1_dropShadow_101_4"/>
<feBlend mode="normal" in="SourceGraphic" in2="effect1_dropShadow_101_4" result="shape"/>
</filter>
<filter id="filter1_d_101_4" x="41.1504" y="33.4363" width="230.773" height="151.643" filterUnits="userSpaceOnUse" color-interpolation-filters="sRGB">
<feFlood flood-opacity="0" result="BackgroundImageFix"/>
<feColorMatrix in="SourceAlpha" type="matrix" values="0 0 0 0 0 0 0 0 0 0 0 0 0 0 0 0 0 0 127 0" result="hardAlpha"/>
<feOffset dy="4"/>
<feGaussianBlur stdDeviation="2"/>
<feComposite in2="hardAlpha" operator="out"/>
<feColorMatrix type="matrix" values="0 0 0 0 0 0 0 0 0 0 0 0 0 0 0 0 0 0 0.25 0"/>
<feBlend mode="normal" in2="BackgroundImageFix" result="effect1_dropShadow_101_4"/>
<feBlend mode="normal" in="SourceGraphic" in2="effect1_dropShadow_101_4" result="shape"/>
</filter>
</defs>
</svg>
